<svg width="198" height="90" viewBox="0 0 198 90" fill="none" xmlns="http://www.w3.org/2000/svg">
<rect x="7" y="5" width="184" height="79" fill="white"/>
<path d="M56.768 62.992C56.6827 62.992 56.64 62.9067 56.64 62.736C56.64 62.352 56.8107 62.1173 57.152 62.032C57.664 61.264 57.92 59.8987 57.92 57.936C57.92 55.8453 57.472 52.304 56.576 47.312C55.936 43.6 55.616 39.8453 55.616 36.048C55.616 32.6773 56.0427 29.1147 56.896 25.36C58.0907 20.0693 59.904 17.424 62.336 17.424C62.4213 17.424 62.464 17.4667 62.464 17.552C62.464 17.68 62.3573 17.808 62.144 17.936C60.0533 19.0027 59.008 22.672 59.008 28.944C59.008 31.248 59.1573 33.936 59.456 37.008C59.7547 40.08 60.2027 43.536 60.8 47.376C60.928 48.1867 60.992 49.04 60.992 49.936C60.992 54.544 59.9893 58.4267 57.984 61.584C60.032 60.2613 63.6373 55.2907 68.8 46.672C70.2933 44.1547 71.5733 42 72.64 40.208C73.7493 38.416 74.6667 36.9867 75.392 35.92C77.9093 31.952 80.3413 28.496 82.688 25.552C83.4133 22.864 83.8187 21.52 83.904 21.52C84.032 21.52 84.096 21.712 84.096 22.096C84.096 22.1813 84.0747 22.3947 84.032 22.736C83.9893 23.0773 83.9253 23.5467 83.84 24.144C86.3147 21.2 88.896 18.64 91.584 16.464C95.3813 13.392 98.5173 11.856 100.992 11.856C102.613 11.856 103.893 12.4533 104.832 13.648C105.643 14.7147 106.048 16.1013 106.048 17.808C106.048 18.1067 106.027 18.4693 105.984 18.896C105.941 19.3227 105.877 19.8133 105.792 20.368C105.536 21.8187 105.259 22.5653 104.96 22.608C104.917 22.5653 104.896 22.5013 104.896 22.416C104.896 22.1173 105.003 21.584 105.216 20.816C105.429 20.048 105.536 19.4507 105.536 19.024C105.536 16.0373 103.957 14.544 100.8 14.544C95.8933 14.544 90.112 18.6187 83.456 26.768C82.6453 31.888 82.048 36.2827 81.664 39.952C81.28 43.5787 81.088 46.4587 81.088 48.592C81.088 55.3333 82.3467 58.704 84.864 58.704C86.8693 58.704 89.472 56.208 92.672 51.216L94.144 48.848C94.3147 48.5493 94.464 48.4 94.592 48.4C94.6773 48.4853 94.72 48.5493 94.72 48.592C94.72 48.72 94.656 48.8907 94.528 49.104C90.9013 56.0587 87.5093 59.536 84.352 59.536C79.9147 59.536 77.696 56.3573 77.696 50C77.696 45.5627 79.04 38.5227 81.728 28.88C80.576 30.3733 79.3173 32.1227 77.952 34.128C76.6293 36.0907 75.2 38.288 73.664 40.72C68.8853 48.1867 66.3253 52.2187 65.984 52.816C63.3813 56.6987 61.2053 59.4507 59.456 61.072C58.1333 62.352 57.2373 62.992 56.768 62.992ZM21.184 66.576C19.52 66.576 18.176 66.0853 17.152 65.104C16.128 64.1653 15.616 62.8853 15.616 61.264C15.616 59.3013 16.32 57.4027 17.728 55.568C17.856 55.3973 17.9627 55.312 18.048 55.312C18.176 55.312 18.24 55.4187 18.24 55.632C18.24 55.632 18.176 55.7813 18.048 56.08C17.92 56.336 17.7493 56.7413 17.536 57.296C17.1093 58.32 16.896 59.3227 16.896 60.304C16.896 61.712 17.3013 62.928 18.112 63.952C18.9653 65.0187 20.096 65.552 21.504 65.552C26.8373 65.552 32.192 62.928 37.568 57.68C42.2613 53.0293 46.2507 47.2053 49.536 40.208C52.6507 33.552 54.208 27.6853 54.208 22.608C54.208 22.3947 54.208 22.2027 54.208 22.032C54.208 21.8187 54.1867 21.6267 54.144 21.456C53.504 21.7547 52.7147 21.9893 51.776 22.16C51.008 27.4933 49.3227 33.0187 46.72 38.736C47.3173 38.3947 47.808 38.224 48.192 38.224C48.576 38.224 48.768 38.416 48.768 38.8C48.768 39.7387 48.1707 40.8267 46.976 42.064C45.824 43.3013 44.7787 44.1333 43.84 44.56C38.464 54.3307 32.896 60.5173 27.136 63.12C25.728 63.8027 24.4053 64.144 23.168 64.144C22.6987 64.144 22.464 63.9733 22.464 63.632C22.464 63.3333 22.656 63.1627 23.04 63.12C23.3813 63.0773 23.8293 62.992 24.384 62.864C24.9387 62.736 25.5573 62.5867 26.24 62.416C29.4827 61.136 32.768 58.5547 36.096 54.672C37.4187 53.136 38.6773 51.5147 39.872 49.808C41.0667 48.0587 42.1973 46.2027 43.264 44.24C42.624 43.088 42.304 41.8933 42.304 40.656C42.304 40.016 42.432 39.3333 42.688 38.608C42.944 37.84 43.3493 37.456 43.904 37.456C44.6293 37.456 45.1413 38.1813 45.44 39.632L45.632 39.568C48.2347 33.808 49.9627 28.0693 50.816 22.352C50.176 22.4373 49.1733 22.5867 47.808 22.8C46.4427 22.9707 44.6933 23.1627 42.56 23.376C39.9147 23.6747 37.6533 23.952 35.776 24.208C33.8987 24.464 32.4267 24.72 31.36 24.976C26.0693 26.2987 23.424 28.304 23.424 30.992C23.424 33.04 24.4053 35.0453 26.368 37.008C28.2453 38.7147 30.2293 39.8667 32.32 40.464C32.576 40.5067 32.704 40.5707 32.704 40.656C32.704 40.8267 32.5333 40.912 32.192 40.912C29.7173 40.912 27.456 39.888 25.408 37.84C23.36 35.7067 22.336 33.424 22.336 30.992C22.336 28.304 24.3627 26.0213 28.416 24.144C31.4027 22.7787 35.5413 21.648 40.832 20.752L51.2 19.216C51.328 17.936 51.392 15.7813 51.392 12.752C51.392 12.4107 51.5413 12.24 51.84 12.24C51.8827 12.24 51.9467 12.3467 52.032 12.56C52.16 13.584 52.224 14.8 52.224 16.208C52.224 16.6773 52.2027 17.168 52.16 17.68C52.16 18.1493 52.1387 18.6187 52.096 19.088C52.5227 19.0027 52.9067 18.9173 53.248 18.832C53.5893 18.7467 53.888 18.6613 54.144 18.576C54.4 18.2347 54.6987 18.064 55.04 18.064C55.4667 18.064 55.744 18.32 55.872 18.832C56 19.5147 56.064 20.624 56.064 22.16C56.064 28.7733 54.0373 35.8347 49.984 43.344C46.144 50.4693 41.5147 56.2293 36.096 60.624C31.1893 64.592 26.2187 66.576 21.184 66.576ZM94.396 59.984C93.884 59.984 93.6707 59.8133 93.756 59.472C93.628 59.216 93.3293 58.6613 92.86 57.808C92.348 57.0827 92.092 56.6347 92.092 56.464C92.092 56.1227 92.2413 55.9307 92.54 55.888C92.9667 55.632 93.4147 55.312 93.884 54.928C94.3533 54.544 94.8653 54.1173 95.42 53.648C98.108 45.7973 102.567 35.024 108.796 21.328C108.967 20.9013 109.18 20.3893 109.436 19.792C109.735 19.1947 110.076 18.4907 110.46 17.68C111.057 16.6987 112.188 16.208 113.852 16.208C114.492 16.208 114.812 16.3573 114.812 16.656C114.812 16.7413 114.769 16.8267 114.684 16.912L110.972 23.888C108.028 29.4347 105.532 34.4267 103.484 38.864C101.436 43.3013 99.8147 47.2053 98.62 50.576C101.009 48.1867 102.972 46.0533 104.508 44.176C106.087 42.256 107.281 40.5707 108.092 39.12C108.177 38.9067 108.327 38.608 108.54 38.224C108.796 37.7973 109.223 37.584 109.82 37.584C110.332 37.584 110.588 37.7547 110.588 38.096C110.588 38.3093 110.545 38.608 110.46 38.992C110.417 39.376 110.353 39.8667 110.268 40.464C110.183 41.0187 110.119 41.5093 110.076 41.936C110.033 42.32 110.012 42.6613 110.012 42.96C110.012 45.5627 110.396 48.1867 111.164 50.832C112.273 54.5013 113.788 56.336 115.708 56.336C116.092 56.336 116.519 56.2293 116.988 56.016C117.457 55.8027 117.756 55.696 117.884 55.696C118.225 55.696 118.396 55.8667 118.396 56.208C118.396 56.6347 117.969 57.0187 117.116 57.36C116.22 57.7013 115.537 57.872 115.068 57.872C112.935 57.872 110.993 56.144 109.244 52.688C107.751 49.5733 107.004 46.672 107.004 43.984C107.004 43.7707 107.004 43.5787 107.004 43.408C107.004 43.2373 107.025 43.0667 107.068 42.896C106.3 44.0053 105.148 45.3707 103.612 46.992C102.076 48.6133 100.177 50.4907 97.916 52.624C97.7027 53.3493 97.4893 54.0533 97.276 54.736C97.1053 55.4187 96.956 56.0587 96.828 56.656L96.508 58.256C96.252 59.408 95.548 59.984 94.396 59.984ZM94.076 58C94.1613 57.6587 94.2467 57.2747 94.332 56.848C94.46 56.4213 94.6093 55.9947 94.78 55.568L93.436 56.656C93.6493 56.9547 93.8627 57.4027 94.076 58ZM118.353 57.616C117.884 57.616 117.649 57.488 117.649 57.232C117.649 55.696 118.268 53.7333 119.505 51.344C121.041 48.3573 121.937 46.416 122.193 45.52C122.62 44.0693 122.833 42.2773 122.833 40.144C122.705 40.5707 122.428 41.1893 122.001 42C121.574 42.8107 120.998 43.8347 120.273 45.072C119.59 46.2667 118.972 47.2693 118.417 48.08C117.905 48.848 117.478 49.4667 117.137 49.936C117.137 49.9787 117.094 50 117.009 50C116.796 50 116.689 49.9147 116.689 49.744L118.609 46.48C119.676 44.688 120.529 43.0453 121.169 41.552C121.809 40.016 122.278 38.6507 122.577 37.456C122.833 36.3467 123.345 35.792 124.113 35.792C124.881 35.792 125.265 36.688 125.265 38.48C125.265 39.4187 125.137 40.592 124.881 42C124.625 43.408 124.198 45.0293 123.601 46.864L120.913 55.248C122.492 54.0533 124.006 52.688 125.457 51.152C126.95 49.616 128.294 47.8453 129.489 45.84L129.873 45.2C130.342 42.0853 130.918 40.1227 131.601 39.312C131.772 39.0133 132.156 38.864 132.753 38.864C133.649 38.864 134.097 39.0987 134.097 39.568C134.097 40.848 133.692 42.0213 132.881 43.088C131.942 46.288 131.473 49.4027 131.473 52.432C131.473 54.48 132.113 55.504 133.393 55.504C134.033 55.504 134.78 55.1413 135.633 54.416C136.486 53.6907 136.892 53.328 136.849 53.328C136.977 53.328 137.041 53.456 137.041 53.712V53.84C135.59 55.888 133.969 56.912 132.177 56.912C130.342 56.912 129.425 55.3333 129.425 52.176C129.425 51.408 129.446 50.576 129.489 49.68C129.574 48.784 129.66 47.8027 129.745 46.736C128.124 49.808 125.457 52.7947 121.745 55.696C121.532 55.8667 121.233 56.1013 120.849 56.4C120.465 56.6987 120.038 57.0187 119.569 57.36C119.356 57.5307 118.95 57.616 118.353 57.616ZM142.153 58.576C139.124 58.576 137.609 56.6133 137.609 52.688C137.609 52.0907 137.63 51.4507 137.673 50.768C137.758 50.0427 137.886 49.2747 138.057 48.464C137.886 48.336 137.716 48.1653 137.545 47.952C137.374 47.696 137.204 47.3973 137.033 47.056C137.204 47.0987 137.374 47.184 137.545 47.312C137.758 47.3973 138.014 47.4827 138.313 47.568C138.782 45.4347 140.062 43.3227 142.153 41.232C144.414 38.928 146.548 37.776 148.553 37.776C149.022 37.776 149.257 37.84 149.257 37.968C149.257 38.0533 148.958 38.2667 148.361 38.608C146.782 39.4613 145.289 40.784 143.881 42.576C142.473 44.4107 141.449 46.2027 140.809 47.952L140.937 48.08C142.985 48.08 145.118 47.0987 147.337 45.136C149.556 43.1733 150.665 41.168 150.665 39.12C150.665 38.48 150.494 37.904 150.153 37.392C149.812 36.88 149.342 36.624 148.745 36.624C147.892 36.624 146.932 36.9653 145.865 37.648C144.798 38.288 144.201 38.608 144.073 38.608C143.988 38.608 143.945 38.5867 143.945 38.544C143.945 38.032 144.692 37.4773 146.185 36.88C147.465 36.368 148.468 36.112 149.193 36.112C150.174 36.112 150.985 36.3893 151.625 36.944C152.308 37.4987 152.649 38.2667 152.649 39.248C152.649 41.5093 151.177 43.7067 148.233 45.84C145.588 47.7173 143.028 48.7627 140.553 48.976C140.212 50 140.041 50.9813 140.041 51.92C140.041 55.4613 141.321 57.232 143.881 57.232C145.844 57.232 147.892 56.3787 150.025 54.672C151.817 53.264 153.31 51.5573 154.505 49.552C154.889 48.9547 155.209 48.656 155.465 48.656C155.508 48.656 155.529 48.6987 155.529 48.784C155.529 48.9547 155.358 49.3387 155.017 49.936C153.694 52.0267 151.838 53.9467 149.449 55.696C146.846 57.616 144.414 58.576 142.153 58.576ZM159.108 32.4C159.023 32.4 158.98 32.3573 158.98 32.272C158.98 32.0587 159.129 31.8027 159.428 31.504C159.641 31.2053 160.004 30.7147 160.516 30.032C161.071 29.3067 161.753 28.3467 162.564 27.152C161.796 27.152 161.412 26.6827 161.412 25.744C161.412 24.592 162.137 24.016 163.588 24.016C164.441 24.016 164.868 24.5493 164.868 25.616C164.868 26.4267 164.1 27.7707 162.564 29.648C161.028 31.4827 159.876 32.4 159.108 32.4ZM172.802 58.128C170.797 58.128 168.983 57.296 167.362 55.632C165.783 53.9253 164.994 52.0693 164.994 50.064C164.994 48.7413 165.335 48.08 166.018 48.08C166.445 48.08 166.871 48.4 167.298 49.04C168.578 46.0533 170.391 42.6827 172.738 38.928C174.231 36.624 175.981 35.472 177.986 35.472C178.413 35.472 178.903 35.6213 179.458 35.92C180.055 36.2187 180.354 36.5813 180.354 37.008C180.354 37.3067 180.077 37.456 179.522 37.456C179.479 37.456 179.415 37.456 179.33 37.456C179.245 37.456 179.138 37.4347 179.01 37.392H178.498C177.559 37.392 176.727 37.6693 176.002 38.224C175.277 38.7787 174.914 39.5253 174.914 40.464C174.914 40.8053 174.978 41.168 175.106 41.552L176.642 46.672C176.983 47.696 177.218 48.656 177.346 49.552C177.474 50.4053 177.538 51.1947 177.538 51.92C178.69 51.7493 179.671 51.3227 180.482 50.64C180.994 50.2133 181.677 49.36 182.53 48.08C182.658 47.9093 182.786 47.824 182.914 47.824C183.042 47.824 183.106 47.9093 183.106 48.08C183.106 48.1227 183.063 48.272 182.978 48.528C181.527 50.96 179.735 52.3893 177.602 52.816C177.474 54.3093 177.026 55.5467 176.258 56.528C175.447 57.5947 174.295 58.128 172.802 58.128ZM174.914 52.752C174.957 52.5813 174.978 52.432 174.978 52.304C174.978 52.176 174.978 52.0267 174.978 51.856C174.978 51.3013 174.871 50.5547 174.658 49.616C174.487 48.6347 174.231 47.44 173.89 46.032C173.25 43.344 173.015 41.552 173.186 40.656C172.077 41.808 170.263 44.88 167.746 49.872C168.557 50.2987 169.239 50.6827 169.794 51.024C170.391 51.3227 170.861 51.5573 171.202 51.728C171.885 52.0267 172.525 52.2613 173.122 52.432C173.762 52.6027 174.359 52.7093 174.914 52.752ZM171.458 56.016C173.165 56.016 174.295 55.184 174.85 53.52C171.437 53.52 168.834 52.816 167.042 51.408C167.127 52.3467 167.639 53.3707 168.578 54.48C169.559 55.504 170.519 56.016 171.458 56.016Z" fill="#A2CFFE"/>
</svg>
